PathFileType	4	(X/Y/Z)	..\data\2014022\dynamic\2014022_C5_02.trc
DataRate	CameraRate	NumFrames	NumMarkers	Units	OrigDataRate	OrigDataStartFrame	OrigNumFrames
100.000000	100.000000	4	52	mm	100.000000	36	145
Frame#	Time	L_IAS			L_IPS			R_IPS			R_IAS			L_FTC			L_FLE			L_FME			L_FAX			L_TTC			L_FAL			L_TAM			L_FCC			L_FM1			L_FM2			L_FM5			R_FTC			R_FLE			R_FME			R_FAX			R_TTC			R_FAL			R_TAM			R_FCC			R_FM1			R_FM2			R_FM5			CV7			TV10			SXS			SJN			L_SIA			L_SRS			L_SAA			L_SAE			L_HLE			L_HME			L_UOA			L_RSP			L_UHE			L_HM2			L_HM5			R_SIA			R_SRS			R_SAA			R_SAE			R_HLE			R_HME			R_UOA			R_RSP			R_UHE			R_HM2			R_HM5			
		X1	Y1	Z1	X2	Y2	Z2	X3	Y3	Z3	X4	Y4	Z4	X5	Y5	Z5	X6	Y6	Z6	X7	Y7	Z7	X8	Y8	Z8	X9	Y9	Z9	X10	Y10	Z10	X11	Y11	Z11	X12	Y12	Z12	X13	Y13	Z13	X14	Y14	Z14	X15	Y15	Z15	X16	Y16	Z16	X17	Y17	Z17	X18	Y18	Z18	X19	Y19	Z19	X20	Y20	Z20	X21	Y21	Z21	X22	Y22	Z22	X23	Y23	Z23	X24	Y24	Z24	X25	Y25	Z25	X26	Y26	Z26	X27	Y27	Z27	X28	Y28	Z28	X29	Y29	Z29	X30	Y30	Z30	X31	Y31	Z31	X32	Y32	Z32	X33	Y33	Z33	X34	Y34	Z34	X35	Y35	Z35	X36	Y36	Z36	X37	Y37	Z37	X38	Y38	Z38	X39	Y39	Z39	X40	Y40	Z40	X41	Y41	Z41	X42	Y42	Z42	X43	Y43	Z43	X44	Y44	Z44	X45	Y45	Z45	X46	Y46	Z46	X47	Y47	Z47	X48	Y48	Z48	X49	Y49	Z49	X50	Y50	Z50	X51	Y51	Z51	X52	Y52	Z52	

37	0.36	265.5469055175782	943.7449951171877	-390.1459045410157	70.78747558593751	959.4236450195315	-322.6069335937501	74.72499847412111	956.8223266601565	-211.7794342041016	260.8580932617188	943.7387695312502	-146.8518981933594	183.4045104980469	886.7315063476565	-460.9411621093751	124.7269668579102	461.8475036621095	-405.0268554687501	76.93997955322267	465.466766357422	-274.8395690917969	88.14631652832033	415.1343688964845	-408.2943115234376	148.9214782714844	397.1993713378907	-343.8121032714844	43.88906478881837	70.42996978759767	-339.7311706542969	64.79010009765626	84.59505462646486	-256.8813476562501	6.580996036529543	23.3081111907959	-291.4508972167969	191.0177917480469	15.3033676147461	-260.1756286621094	197.6601562500001	33.50410079956055	-322.2215576171876	149.3414001464844	20.05437278747559	-370.8915710449219	184.939208984375	867.8901367187502	-86.18753814697267	383.1451110839844	488.8934020996095	-136.7216033935547	400.6535949707032	494.0996704101564	-270.4675292968751	366.7830200195313	439.3290100097657	-132.7166290283203	434.9064331054689	428.3380737304689	-181.1177215576172	339.5057373046876	95.26811981201173	-165.5816345214844	362.2408142089844	100.8750991821289	-250.8633270263672	308.2265319824219	43.16500854492188	-214.0808410644532	484.0116271972657	49.90403366088869	-243.4037628173829	485.9082336425782	67.62894439697267	-188.4458923339844	449.6377258300782	49.44569015502931	-141.3636322021485	141.0904541015625	1431.896850585938	-296.3122253417969	59.01361465454103	1218.852783203125	-287.3119201660157	293.1719665527344	1147.474975585938	-280.6941223144532	256.5185241699219	1362.585083007813	-294.2968750000001	53.25698852539064	1247.8662109375	-372.1013793945313	96.58441162109378	1383.516723632813	-357.6860046386719	129.1462707519532	1388.584106445313	-426.9177246093751	181.3061828613282	1375.06103515625	-474.4978637695314	192.4514465332032	1053.055419921875	-513.7265625000001	188.9576721191407	1050.134155273438	-423.8326416015626	184.8494415283203	1018.996154785156	-476.4668273925782	398.6623840332032	902.0407714843752	-465.6167602539064	344.4096679687501	870.1077880859377	-507.0848693847657	462.8559570312501	849.1582641601565	-479.4400634765626	376.2493896484376	795.8809204101565	-499.0499572753907	49.79368972778322	1254.228149414063	-200.133529663086	104.3178024291992	1388.2236328125	-219.0993194580079	138.6964569091797	1391.975708007813	-140.1229248046875	185.530258178711	1392.973876953125	-108.3145904541016	118.5948181152344	1085.43701171875	-52.60570907592775	127.9273071289063	1070.974365234375	-134.6017761230469	104.9658355712891	1068.520874023438	-86.21688842773439	163.6181335449219	848.4289550781252	-15.75595283508301	92.80030059814455	865.0612792968752	-5.267663002014161	161.4609375	757.3418579101564	8.066601753234865	64.38943481445314	785.3240966796877	-11.1965560913086	
38	0.37	279.9430541992188	940.5272216796877	-391.7915649414064	85.55857086181642	955.8496704101565	-320.7295227050782	90.49239349365236	953.5581054687502	-210.2174224853516	277.3230590820313	940.5352172851565	-147.565673828125	196.2262268066407	883.782165527344	-460.6897888183595	132.8216705322266	460.8687438964845	-404.376434326172	86.79993438720705	465.6605529785157	-273.9222106933594	95.56066894531251	414.8594360351564	-407.4700317382814	156.1131134033203	396.0068969726564	-343.4684448242188	44.68862533569337	70.8965530395508	-338.1804809570313	66.24868011474611	84.93244934082033	-255.4343719482422	7.031183719635012	24.17439651489259	-289.8157043457032	191.7888793945313	15.45352935791016	-260.1842956542969	198.0257415771485	33.53582763671876	-322.1539611816407	149.2064514160157	20.53385925292969	-370.2956237792969	203.9326782226563	865.476501464844	-85.19710540771486	399.5397033691407	486.4105529785157	-136.5	415.0163574218751	490.8310852050782	-270.4996032714844	385.9549560546876	436.194549560547	-132.5353393554688	454.5166320800782	428.9307556152345	-181.1244354248047	384.989471435547	90.6172332763672	-166.5913848876953	406.7540893554689	97.92928314208987	-251.8092041015626	357.2137451171876	36.37548446655274	-215.3441162109376	531.4794311523439	55.49626541137697	-246.4477081298829	532.9216918945314	72.43581390380861	-191.2187042236328	498.5892639160157	51.34758377075197	-144.0274047851563	157.0449981689453	1429.2822265625	-296.7364501953126	74.71874237060548	1216.336547851563	-288.7223815917969	308.8864135742188	1143.824340820313	-280.9165039062501	272.5942993164063	1359.756958007813	-294.3050537109376	69.69051361083986	1245.646606445313	-373.7306823730469	112.8265838623047	1381.2900390625	-358.6601867675782	146.0807647705078	1386.661376953125	-427.6903686523439	198.8408355712891	1373.207153320313	-474.7398071289064	213.3858032226563	1051.259033203125	-514.4188232421876	208.9056549072266	1048.022216796875	-424.565155029297	206.6759643554688	1016.482482910156	-477.1370849609376	426.5000305175782	911.3970336914065	-462.345916748047	374.7709045410157	876.1057128906252	-504.4248962402345	493.7056579589845	862.143005371094	-474.3160400390626	410.7670288085939	803.8426513671877	-495.0223388671876	64.97031402587892	1251.321655273438	-201.7407379150391	119.8851470947266	1385.411010742188	-220.0381011962891	153.7599182128907	1389.012939453125	-140.8046569824219	200.2406311035157	1389.8740234375	-108.6542205810547	130.0700225830078	1083.08056640625	-52.77673721313478	140.2049865722657	1067.735717773438	-134.4247283935547	116.8101806640625	1066.101806640625	-86.42724609375001	173.2334899902344	846.3948364257815	-13.29708766937256	102.1797332763672	863.1685791015627	-4.788577556610108	170.0070953369141	755.7576293945314	11.82994651794434	73.54357910156251	783.624938964844	-10.52364921569824	
39	0.38	294.3215637207032	937.335388183594	-393.5595092773439	100.532958984375	952.1587524414065	-318.6648864746094	106.3854522705078	950.1168212890627	-208.6576843261719	293.8648376464844	937.278259277344	-148.152099609375	208.8781890869141	880.8338623046877	-460.149871826172	141.440170288086	459.8843078613282	-403.5807495117189	97.72563934326175	465.6094970703126	-272.6592102050782	103.4443817138672	414.6118469238282	-406.443084716797	163.8796539306641	394.7194213867189	-343.0516662597657	45.52828979492188	71.50874328613283	-336.6365661621094	67.71437835693361	85.35876464843751	-253.9719696044922	7.403130054473879	25.20613861083985	-288.2073669433594	192.623275756836	15.58125877380371	-260.2059326171876	198.4218444824219	33.57307815551759	-322.0833435058594	149.1062927246094	20.99864006042481	-369.6507263183594	222.7845001220704	862.739440917969	-84.3323211669922	415.3247375488282	483.4773864746095	-136.2869720458985	428.3785095214845	486.8213806152345	-270.6767883300782	404.4672851562501	432.8074951171876	-132.4423980712891	473.2478332519532	429.0613403320314	-181.25927734375	428.6791992187501	87.20271301269533	-167.5730133056641	449.2452087402345	96.05458068847659	-252.7566528320313	404.2515258789064	31.00988197326661	-216.5677795410157	576.3536987304689	62.00038146972658	-249.5896911621094	577.5769042968751	78.16471099853517	-194.1060180664063	545.3962402343751	54.361629486084	-146.7904205322266	173.0414428710938	1426.590087890625	-297.1400451660157	90.50463867187501	1213.741821289063	-290.0519409179688	324.7409973144532	1140.035278320313	-280.9877014160157	288.7562561035157	1356.815307617188	-294.2106018066407	86.16598510742189	1243.354125976563	-375.3123779296876	129.16259765625	1378.989624023438	-359.6137695312501	163.1564483642578	1384.6484375	-428.4220581054689	216.5499572753907	1371.178100585938	-474.889373779297	234.0882110595704	1049.3857421875	-515.1890869140626	228.4896240234376	1045.666381835938	-425.3973388671876	228.1795959472657	1013.913146972656	-477.8923645019532	453.1956176757814	920.8101806640627	-459.1339416503907	404.1983642578126	882.4428710937502	-501.8717651367189	523.1417236328126	875.3107910156252	-469.2573547363282	444.146697998047	812.3046875000002	-491.110565185547	80.18929290771486	1248.339111328125	-203.2981262207032	135.4904937744141	1382.530639648438	-220.9370880126954	168.8369903564453	1386.020629882813	-141.4493408203125	214.9617767333985	1386.752807617188	-108.96435546875	141.7979583740235	1080.647216796875	-52.93960571289064	152.7192535400391	1064.442016601563	-134.2199401855469	128.9235992431641	1063.575073242188	-86.62039947509767	183.4496002197266	844.2619628906252	-10.96109294891358	112.1802368164063	861.104431152344	-4.365410804748536	179.358154296875	754.2130126953126	15.51500892639161	83.49255371093751	781.6706542968752	-9.886182785034181	
40	0.39	308.7552795410157	934.2520751953127	-395.3876037597657	115.7611236572266	948.4863891601565	-316.4791870117188	122.4462661743164	946.6357421875002	-207.1320495605469	310.5099487304688	934.0942993164065	-148.6059722900391	221.4727630615235	877.953308105469	-459.323455810547	150.5455627441407	458.9385681152345	-402.6719055175782	109.5065460205078	465.3500366210939	-271.1086425781251	111.75048828125	414.4337158203126	-405.2525329589845	172.1629486083985	393.3570251464845	-342.5456237792969	46.40349578857423	72.31743621826173	-335.1882324218751	69.14521789550783	85.91741943359376	-252.5733032226563	7.665733814239504	26.46623802185059	-286.7207641601563	193.492904663086	15.64174175262452	-260.2356262207032	198.8458557128907	33.5987777709961	-322.0133666992188	149.0461883544922	21.40223503112793	-368.9880676269532	241.3951721191407	859.788757324219	-83.60497283935548	430.6709899902345	480.2513427734376	-136.1178436279297	440.9735107421876	482.3044433593751	-271.0083312988282	422.4022521972657	429.2830505371095	-132.4615478515625	491.1942443847657	428.7855224609376	-181.5583190917969	469.958709716797	84.8674774169922	-168.5607452392578	489.171600341797	95.0771942138672	-253.7427368164063	448.6504211425782	26.93301963806153	-217.7829589843751	618.1164550781251	69.03807830810548	-252.7905426025391	619.3198852539064	84.45674896240236	-197.0778961181641	589.4084472656251	58.18062210083009	-149.6346435546875	189.0755157470703	1423.890380859375	-297.5013427734376	106.3951492309571	1211.127563476563	-291.2708129882813	340.7609252929688	1136.271362304688	-280.8884277343751	304.9971923828126	1353.855346679688	-294.0045471191407	102.6976089477539	1241.038208007813	-376.8054199218751	145.581039428711	1376.66748046875	-360.5102844238282	180.3356475830078	1382.600952148438	-429.0807495117189	234.378890991211	1369.050048828125	-474.9316711425782	254.5192260742188	1047.49755859375	-516.0214843750001	247.6871643066407	1043.143798828125	-426.3121337890626	249.3222961425782	1011.347412109375	-478.7236633300782	478.6979980468751	930.2026977539065	-456.0179138183595	432.6007690429689	889.073425292969	-499.4627380371095	551.1081542968751	888.5567016601565	-464.3311767578126	476.2837829589845	821.1812744140627	-487.3740234375001	95.47173309326173	1245.349487304688	-204.7760009765626	151.1361541748047	1379.651000976563	-221.771957397461	183.9311828613282	1383.071166992188	-142.038818359375	229.6969299316407	1383.699096679688	-109.2290954589844	153.8440704345703	1078.209106445313	-53.10276031494142	165.5578002929688	1061.197387695313	-134.0041656494141	141.3736572265625	1061.027954101563	-86.80455780029298	194.2612609863282	842.081726074219	-8.779344558715822	122.809326171875	858.9615478515627	-3.99604892730713	189.4853515625	752.7416992187501	19.05977439880371	94.20973968505861	779.5542602539065	-9.293267250061037	
